<?xml version="1.0" encoding="UTF-8" standalone="no"?>
<!-- Generator: Adobe Illustrator 17.0.1, SVG Export Plug-In . SVG Version: 6.00 Build 0)  -->

<svg
   version="1.1"
   id="Layer_1"
   x="0px"
   y="0px"
   width="576"
   height="576"
   viewBox="0 0 576 576"
   xml:space="preserve"
   xmlns="http://www.w3.org/2000/svg"
   xmlns:svg="http://www.w3.org/2000/svg"><defs
   id="defs3" />
<g
   id="icon-l-music">
	<rect
   id="icon-l-music_1_"
   style="opacity:0;fill:#ffffff"
   width="576"
   height="576"
   x="0"
   y="0" />
	<g
   id="g3"
   transform="matrix(6,0,0,6,16.236,-5.487)">
		<path
   style="opacity:0.5;fill:#ffffff"
   d="M 74.65,15.756 H 35.424 c -3.3,0 -6,2.677 -6,5.949 0,1.907 0,42.746 0,42.746 0,3.3 5.795,3.3 5.795,0 V 34.107 H 74.855 V 64.45 c 0,3.3 5.795,3.3 5.795,0 0,0 0,-40.839 0,-42.746 0,-3.271 -2.7,-5.948 -6,-5.948 z"
   id="path1" />
		<path
   style="fill:#ffffff"
   d="m 19.988,82.073 c -5.823,0 -10.05,-3.902 -10.05,-9.281 0,-6.187 5.405,-12.183 12.304,-13.651 0.986,-0.209 1.971,-0.315 2.927,-0.315 5.823,0 10.049,3.902 10.049,9.28 0,6.189 -5.404,12.184 -12.303,13.651 -0.985,0.21 -1.97,0.316 -2.927,0.316 z"
   id="path2" />
		<path
   style="fill:#ffffff"
   d="m 65.419,82.073 c -5.823,0 -10.049,-3.902 -10.049,-9.281 0,-6.187 5.404,-12.183 12.303,-13.651 0.986,-0.209 1.971,-0.315 2.927,-0.315 5.823,0 10.049,3.902 10.049,9.28 0,6.189 -5.405,12.184 -12.303,13.651 -0.985,0.21 -1.97,0.316 -2.927,0.316 z"
   id="path3" />
	</g>
</g>
</svg>
